<?xml version="1.0" encoding="utf-8"?>
<!-- Generator: Adobe Illustrator 16.0.0, SVG Export Plug-In . SVG Version: 6.00 Build 0)  -->
<!DOCTYPE svg PUBLIC "-//W3C//DTD SVG 1.1//EN" "http://www.w3.org/Graphics/SVG/1.1/DTD/svg11.dtd">
<svg version="1.1" id="Capa_1" xmlns="http://www.w3.org/2000/svg" xmlns:xlink="http://www.w3.org/1999/xlink" x="0px" y="0px"
	 width="200px" height="102px" viewBox="0 0 200 102" enable-background="new 0 0 200 102" xml:space="preserve">
<g>
	<path fill="#0C5B82" d="M7.341,19.533c-1.169,0-2.686-1.019-4.547-3.059C0.93,14.436,0,12.786,0,11.524
		c0-1.335,0.913-3.004,2.74-5.006C4.563,4.517,6.1,3.515,7.341,3.515c1.169,0,2.686,1.021,4.548,3.06
		c1.862,2.041,2.795,3.69,2.795,4.95c0,1.335-0.916,3.004-2.739,5.006C10.118,18.532,8.583,19.533,7.341,19.533z M0,77.375V27.098
		h14.684v50.277H0z"/>
	<path fill="#0C5B82" d="M51.059,77.375V45.562c0-1.927-0.501-3.521-1.503-4.782c-1.002-1.261-2.468-1.892-4.394-1.892
		c-1.929,0-3.448,0.631-4.562,1.892c-1.112,1.262-1.668,2.966-1.668,5.116v31.479H24.36V26.986h12.793l0.443,4.672
		c1.113-1.779,2.689-3.188,4.729-4.227c2.04-1.038,4.541-1.558,7.508-1.558c4.82,0,8.658,1.501,11.514,4.505
		c2.853,3.004,4.282,7.102,4.282,12.292v34.704H51.059z"/>
	<path fill="#0C5B82" d="M106.341,13.972c-0.446-0.296-1.169-0.611-2.169-0.945s-2.207-0.501-3.614-0.501
		c-2.745,0-4.896,0.965-6.453,2.893c-1.558,1.93-2.336,4.487-2.336,7.675v3.894h10.456l-0.89,12.124h-9.566v38.265h-14.35V39.11
		h-6.451V26.986h6.451v-2.225c0-8.156,1.963-14.312,5.896-18.466c3.929-4.151,9.305-6.229,16.128-6.229
		c3.188,0,5.746,0.52,7.677,1.557L106.341,13.972z"/>
	<path fill="#0C5B82" d="M137.152,77.375l-0.334-4.673c-1.112,1.708-2.727,3.098-4.839,4.172c-2.113,1.076-4.616,1.615-7.508,1.615
		c-4.747,0-8.564-1.521-11.458-4.56c-2.892-3.04-4.338-7.12-4.338-12.238V26.986h14.572v31.814c0,1.93,0.501,3.521,1.501,4.781
		c1.001,1.262,2.466,1.892,4.395,1.892c1.928,0,3.449-0.63,4.561-1.892c1.112-1.261,1.67-2.965,1.67-5.115v-31.48h14.57v50.389
		H137.152z"/>
	<path fill="#0C5B82" d="M185.427,73.036c-2.668,8.448-5.781,14.947-9.34,19.504c-3.558,4.557-7.93,7.686-13.118,9.393l-5.906-9.89
		c3.336-1.336,6.025-3.187,8.064-5.559c2.04-2.369,3.986-6.223,5.84-11.557l-15.573-47.941l14.148-0.007l5.833,19.042
		c0.227,0.74,0.627,2.204,1.199,4.389c0.571,2.186,1.011,3.906,1.316,5.164c0.38-1.626,0.758-3.125,1.142-4.491
		c0.38-1.366,0.876-3.012,1.485-4.935l5.945-19.151L200,26.986L185.427,73.036z"/>
</g>
</svg>
